# xmcd
#
# Track frame offsets:
#	150
#	5147
#	28275
#	47882
#	69302
#	96670
#	117167
#	140032
#	158640
#	179205
#	201420
#	204227
#	221260
#	240512
#	263640
#	296700
#
# Disc length: 3995 seconds
#
# Revision: 0
# Processed by: cddbd v1.5.2PL0 Copyright (c) Steve Scherf et al.
# Submitted via: dBpowerAMP V4.0
#
DISCID=fa0f9910
DTITLE=Youth Edition - Anything is Possible
DYEAR=2000
DGENRE=Gospel
TTITLE0=Intro
TTITLE1=Anything Is Possible
TTITLE2=All Day Long
TTITLE3=Your Love Lifted Me
TTITLE4=Sun Will Shine Again, The
TTITLE5=Best Friend
TTITLE6=Use Me
TTITLE7=Get On Up
TTITLE8=Tell Me
TTITLE9=I Believe In Love
TTITLE10=Interlude
TTITLE11=Keep On Keepin' On
TTITLE12=Do, Do, Do, Do, Do
TTITLE13=Workin' For Your Good
TTITLE14=Go Tell It On The Mountain
TTITLE15=DATA
EXTD=The one I have is a little different from the other Youth Edition cds.  A picture of the one I have is at:\nhttp://www.tln.com/program/images/testify107a.jpg\n\nThanks,\nRobert
EXTT0=
EXTT1=
EXTT2=
EXTT3=
EXTT4=
EXTT5=
EXTT6=
EXTT7=
EXTT8=
EXTT9=
EXTT10=
EXTT11=
EXTT12=
EXTT13=
EXTT14=
EXTT15=
PLAYORDER=
